<svg xmlns="http://www.w3.org/2000/svg" viewBox="0 0 512 512">
	<path style="fill:#E44F26;" d="M256,104.4H81c10.4,120.4,20.8,240.8,31.3,361.2c47.9,13.5,95.8,26.9,143.8,40.4
		c47.9-13.5,95.8-26.9,143.7-40.4c10.4-120.4,20.8-240.8,31.2-361.2L256,104.4z"/>
	<path style="fill:#F1672A;" d="M256,475.6c38.8-11.4,77.6-22.8,116.4-34.2c8.4-101.9,16.9-203.9,25.3-305.8H256V475.6z"/>
	<path style="fill:#EBEBEB;" d="M166.1,404.7c30,8.5,59.9,17,89.9,25.6c0-15.6,0.1-31.1,0.1-46.7c-16.4-4.7-32.9-9.3-49.3-14
			c-1-11.6-2-23.1-3-34.7c-14.6,0-29.2,0-43.7,0C162,358.1,164.1,381.4,166.1,404.7z"/>
	<path style="fill:#FFFFFF;" d="M361.9,222.6H256v-44.1c36.6,0,73.2,0,109.8,0C364.5,193.2,363.2,207.9,361.9,222.6z"/>
	<path style="fill:#FFFFFF;" d="M314.1,268.6H256v43.7c18.1,0,36.2,0,54.3,0c-1.7,19.1-3.3,38.2-5,57.2c-16.4,4.7-32.8,9.3-49.2,14
			c0,15.6-0.1,31.1-0.1,46.7c30.2-8.5,60.4-17,90.6-25.6c3.7-45.4,7.5-90.7,11.2-136.1C343.3,268.6,328.7,268.6,314.1,268.6z"/>
	<path style="fill:#EBEBEB;" d="M256,222.6v-44.1c-22,0-44,0-66,0c-14.6,0-29.2,0-43.7,0c3.9,44.6,7.8,89.2,11.8,133.7
			c14.4,0,28.8,0,43.1,0c18.3,0,36.6,0,54.9,0v-43.7h-58.5c-1.3-15.3-2.6-30.6-3.8-45.9H256z"/>
</svg>
