<?xml version="1.0" encoding="utf-8"?>
<!-- Generator: Adobe Illustrator 28.0.0, SVG Export Plug-In . SVG Version: 6.00 Build 0)  -->
<svg version="1.1" id="Layer_1" xmlns="http://www.w3.org/2000/svg" xmlns:xlink="http://www.w3.org/1999/xlink" x="0px" y="0px"
	 viewBox="0 0 450 512" style="enable-background:new 0 0 450 512;" xml:space="preserve">
<style type="text/css">
	.st0{fill:#E44F26;}
	.st1{fill:#F1672A;}
	.st2{fill:#EBEBEB;}
	.st3{fill:#FFFFFF;}
</style>
<path class="st0" d="M225,1H2.5c13.2,152.9,26.4,305.8,39.8,458.7c60.9,17.1,121.8,34.2,182.8,51.3c60.9-17.1,121.8-34.2,182.7-51.3
	C421.1,306.8,434.3,153.9,447.5,1L225,1z"/>
<path class="st1" d="M225,472.4c49.3-14.5,98.7-29,148-43.4c10.7-129.4,21.5-258.9,32.2-388.3H225V472.4z"/>
<path class="st2" d="M110.7,382.4c38.1,10.8,76.2,21.6,114.3,32.5c0-19.8,0.1-39.5,0.1-59.3c-20.9-6-41.8-11.8-62.7-17.8
	c-1.3-14.7-2.5-29.3-3.8-44.1c-18.6,0-37.1,0-55.6,0C105.5,323.2,108.2,352.8,110.7,382.4z"/>
<path class="st3" d="M359.6,151.1H225v-56c46.5,0,93.1,0,139.6,0C363,113.8,361.3,132.4,359.6,151.1z"/>
<path class="st3" d="M298.9,209.5H225V265c23,0,46,0,69,0c-2.2,24.3-4.2,48.5-6.4,72.6c-20.9,6-41.7,11.8-62.6,17.8
	c0,19.8-0.1,39.5-0.1,59.3c38.4-10.8,76.8-21.6,115.2-32.5c4.7-57.7,9.5-115.2,14.2-172.8C336,209.5,317.4,209.5,298.9,209.5z"/>
<path class="st2" d="M225,151.1v-56c-28,0-55.9,0-83.9,0c-18.6,0-37.1,0-55.6,0c5,56.6,9.9,113.3,15,169.8c18.3,0,36.6,0,54.8,0
	c23.3,0,46.5,0,69.8,0v-55.5h-74.4c-1.7-19.4-3.3-38.9-4.8-58.3H225z"/>
</svg>
