<?xml version="1.0" encoding="utf-8"?>
<!-- Generator: Adobe Illustrator 28.0.0, SVG Export Plug-In . SVG Version: 6.00 Build 0)  -->
<svg version="1.1" id="Layer_1" xmlns="http://www.w3.org/2000/svg" xmlns:xlink="http://www.w3.org/1999/xlink" x="0px" y="0px"
	 viewBox="0 0 256 90" style="enable-background:new 0 0 256 90;" xml:space="preserve">
<path style="fill:#EFAF5B;stroke:#C18E52;stroke-width:0.75;stroke-miterlimit:10;" d="M32.9,5v7.1H24l-5.2,5.2v20.3
	c0,1-0.3,1.9-0.9,2.5l-4.5,4.8l4.5,4.9c0.6,0.6,0.9,1.5,0.9,2.5v20.3l5.2,5.2h8.9v7.1H22.6c-0.9,0-1.7-0.4-2.4-1.1L13,76.5
	c-0.7-0.7-1-1.6-1-2.6V53.6l-4.8-5.2H3v-7.1h4.1l4.8-5.1V15.8c0-1,0.3-1.8,1-2.5L20.1,6c0.5-0.7,1.3-1.1,2.4-1.1L32.9,5L32.9,5z"/>
<path style="fill:#FFFFFF;" d="M75.5,64.7L64,76.6c-0.7,0.7-1.5,1.1-2.4,1.1s-1.7-0.4-2.4-1.1l-6.9-7.1c-0.7-0.7-1-1.5-1-2.5
	l-0.1-54.6h6.9l0.1,53.1l3.4,3.4L72.1,58V41.5H79v16.8L89.6,69l3.6-3.6V12.3h6.9V67c0,1-0.3,1.9-1,2.6l-7,7c-0.8,0.6-1.6,1-2.4,1
	c-0.9,0-1.7-0.4-2.4-1.1L75.5,64.7z"/>
<path style="fill:#FFFFFF;" d="M107.5,12.4H156v7.3h-41.5v21.8H142v7.3h-27.5v21.9H156v7.1h-48.5V12.4z"/>
<path style="fill:#FFFFFF;" d="M170.4,70.5v-51h-7v-7.1h31.3c0.8,0,1.6,0.4,2.5,1.1L211,28.4c0.6,0.6,0.9,1.4,0.9,2.4
	c0,1.1-0.3,2-1,2.7L199.3,45l11.6,11.8c0.7,0.7,1,1.5,1,2.4c0,1-0.3,1.9-1,2.6l-14,14.9c-0.7,0.7-1.5,1.1-2.4,1.1h-31.1v-7.1h7V70.5
	z M193,41.4l10.7-10.7l-10.4-11.2h-15.8v21.9C177.5,41.4,193,41.4,193,41.4z M193.1,48.6h-15.7v21.9H193l10.7-11.2L193.1,48.6z"/>
<path style="fill:#EFAF5B;stroke:#C18E52;stroke-width:0.75;stroke-miterlimit:10;" d="M223.1,5h10.3c1.1,0,1.9,0.4,2.4,1.1l7.2,7.3
	c0.7,0.7,1,1.5,1,2.5v20.4l4.8,5.1h4.1v7.1h-4.1l-4.8,5.2V74c0,1-0.3,1.9-1,2.6l-7.2,7.3c-0.7,0.7-1.5,1.1-2.4,1.1h-10.3v-7.1h8.9
	l5.2-5.2V52.4c0-1,0.3-1.9,0.9-2.5l4.5-4.9l-4.5-4.8c-0.6-0.6-0.9-1.5-0.9-2.5V17.4l-5.2-5.2h-8.9V5z"/>
</svg>
